<?xml version="1.0" standalone="no"?><!DOCTYPE svg PUBLIC "-//W3C//DTD SVG 1.1//EN" "http://www.w3.org/Graphics/SVG/1.1/DTD/svg11.dtd"><svg t="1646467850281" class="icon" viewBox="0 0 1024 1024" version="1.1" xmlns="http://www.w3.org/2000/svg" p-id="846" xmlns:xlink="http://www.w3.org/1999/xlink" width="200" height="200"><defs><style type="text/css"></style></defs><path d="M512.21725894 836.80210064c-179.23861743 0-324.51242208-145.27380467-324.51242213-324.51242208S332.9786415 187.70483681 512.21725894 187.70483681s324.51242208 145.27380467 324.51242208 324.51242213-145.27380467 324.58484173-324.51242208 324.5848417z m182.93201923-425.17572642c-6.37292859-6.30050899-16.58409827-6.30050899-22.95702699 9e-8L477.09373184 606.72489358 373.82332036 503.45448207c-6.37292859-6.37292859-16.58409827-6.37292859-22.95702694 1e-8-6.30050899 6.37292859-6.30050899 16.58409827 1e-8 22.95702692L465.65142823 641.12422421c6.37292859 6.30050899 16.58409827 6.30050899 22.9570269 0l206.54082304-206.54082303c6.30050899-6.37292859 6.30050899-16.65651798 0-22.95702696z" fill="#ffffff" p-id="847"></path></svg>